<svg xmlns="http://www.w3.org/2000/svg" width="22" height="22" viewBox="0 0 22 22">
  <g id="Group_10886" data-name="Group 10886" transform="translate(-30 -263)">
    <path id="Path_2322" data-name="Path 2322" d="M0,4H22V26H0Z" transform="translate(30 259)" fill="#5d574b" opacity="0"/>
    <path id="Path_26476" data-name="Path 26476" d="M9375.2,17491.578a.579.579,0,1,1,0-1.158h16.834a.579.579,0,0,1,0,1.158Zm2.571-2.5a.567.567,0,0,1-.238-.5l.283-5.01a.579.579,0,0,1,.119-.322l6.624-8.57a2.766,2.766,0,0,1,3.83-.51l1.2.908a2.374,2.374,0,0,1,.621,1.492,2.734,2.734,0,0,1-.552,2.045l-6.59,8.51a.6.6,0,0,1-.24.178l-4.5,1.846a.6.6,0,0,1-.557-.064Zm.97-1.355,2.686-1.1-2.517-1.891Zm.458-4.213,3.292,2.465,5.163-6.664-3.288-2.492Zm6.276-8.123-.4.518,3.287,2.5.384-.5a1.594,1.594,0,0,0-.3-2.244l-.761-.57a1.586,1.586,0,0,0-2.213.3Z" transform="translate(-9342.613 -17208.615)" fill="#301e4e"/>
  </g>
</svg>
