<svg xmlns="http://www.w3.org/2000/svg" width="22" height="22" viewBox="0 0 22 22">
  <g id="Group_13831" data-name="Group 13831" transform="translate(-30 -263)">
    <path id="Path_2322" data-name="Path 2322" d="M0,4H22V26H0Z" transform="translate(30 259)" fill="#5d574b" opacity="0"/>
    <path id="Union_12" data-name="Union 12" d="M4.948,17.216a2.854,2.854,0,0,1-2.836-2.6L1.037,3.443H0V2.3H5.157V1.722A1.72,1.72,0,0,1,6.877,0H9.165a1.72,1.72,0,0,1,1.719,1.722V2.3h5.157V3.443H15L13.93,14.617a2.854,2.854,0,0,1-2.836,2.6Zm6.146-1.13a1.715,1.715,0,0,0,1.714-1.56L13.86,3.443H2.187L3.234,14.526a1.715,1.715,0,0,0,1.714,1.56ZM6.47,1.315a.576.576,0,0,0-.168.407V2.3H9.74V1.722a.575.575,0,0,0-.569-.576H6.877A.574.574,0,0,0,6.47,1.315ZM8.88,12.051V7.462h1.144v4.589Zm-2.863,0V7.462H7.161v4.589Z" transform="translate(32.98 265)" fill="#301e4e"/>
  </g>
</svg>
