<svg xmlns="http://www.w3.org/2000/svg" width="22" height="22" viewBox="0 0 22 22">
  <g id="Group_13919" data-name="Group 13919" transform="translate(-30 -263)">
    <path id="Path_2322" data-name="Path 2322" d="M0,4H22V26H0Z" transform="translate(30 259)" fill="#5d574b" opacity="0"/>
    <g id="Group_13921" data-name="Group 13921" transform="translate(31.091 263.899)">
      <path id="Path_27552" data-name="Path 27552" d="M14.37,15.9H13.2V14.725a.541.541,0,0,0-1.083,0V15.9H10.943a.541.541,0,0,0,0,1.083h1.172v1.172a.541.541,0,0,0,1.083,0V16.98H14.37a.541.541,0,0,0,0-1.083Z" transform="translate(-3.383 -5.212)" fill="#85828b"/>
      <path id="Path_27553" data-name="Path 27553" d="M16.373,3.356H15.02V2.129a1.032,1.032,0,0,0-1.665-.81L10.771,3.356H6.627A2.488,2.488,0,0,0,4.15,5.7,2.485,2.485,0,0,0,1.909,8.17v6.115A2.494,2.494,0,0,0,4.4,16.776H5.754V18a1.021,1.021,0,0,0,.58.925,1.021,1.021,0,0,0,1.085-.117L10,16.776h4.145a2.487,2.487,0,0,0,2.476-2.351,2.486,2.486,0,0,0,2.241-2.466V5.847A2.5,2.5,0,0,0,16.373,3.356Zm-.819,10.929a1.409,1.409,0,0,1-1.407,1.408H9.814a.543.543,0,0,0-.335.116L6.837,17.887V16.234a.542.542,0,0,0-.541-.541H4.4a1.409,1.409,0,0,1-1.407-1.408V8.17A1.409,1.409,0,0,1,4.4,6.762h9.747A1.409,1.409,0,0,1,15.554,8.17Zm2.227-2.326a1.409,1.409,0,0,1-1.143,1.381V8.17a2.494,2.494,0,0,0-2.491-2.491H5.236A1.4,1.4,0,0,1,6.627,4.439h4.332a.545.545,0,0,0,.336-.116l2.642-2.084V3.9a.542.542,0,0,0,.541.541h1.9A1.409,1.409,0,0,1,17.78,5.847v6.112Z" fill="#85828b"/>
    </g>
  </g>
</svg>
