<svg xmlns="http://www.w3.org/2000/svg" width="20.49" height="20.044" viewBox="0 0 20.49 20.044">
  <path id="Path_27541" data-name="Path 27541" d="M14.245,957.362a6.175,6.175,0,0,0-6.1,5.018,5.109,5.109,0,0,0,.974,10.126h2.45a.668.668,0,1,0,0-1.336H9.122a3.787,3.787,0,0,1-.348-7.558.668.668,0,0,0,.6-.585,4.9,4.9,0,1,1,9.737,1.155.668.668,0,0,0,.661.752h.264a3.118,3.118,0,0,1,0,6.236H16.917a.668.668,0,1,0,0,1.336h3.118a4.442,4.442,0,0,0,.4-8.867,6.168,6.168,0,0,0-6.194-6.277Zm0,11.136a.668.668,0,0,0-.668.668v6.062l-1.329-1.211a.7.7,0,0,0-.947.042.675.675,0,0,0,.042.947l2.45,2.227a.6.6,0,0,0,.452.174.563.563,0,0,0,.452-.174l2.45-2.227a.673.673,0,0,0,.042-.947.714.714,0,0,0-.947-.042l-1.329,1.211v-6.062A.668.668,0,0,0,14.245,968.5Z" transform="translate(-4 -957.362)" fill="#301e4e"/>
</svg>
