<svg id="Component_127_1" data-name="Component 127 – 1" xmlns="http://www.w3.org/2000/svg" width="24" height="24" viewBox="0 0 24 24">
  <rect id="Rectangle_1024" data-name="Rectangle 1024" width="24" height="24" fill="#fff" opacity="0"/>
  <g id="Group_13077" data-name="Group 13077" transform="translate(0.314 0.69)">
    <path id="Path_27055" data-name="Path 27055" d="M-6149.737,16362.009l-.264-.355.264-.352a16.941,16.941,0,0,1,2.659-2.725,10.951,10.951,0,0,1,4.777-2.437,4.626,4.626,0,0,1,1.123-.138h.283c4.855,0,8.159,5.115,8.3,5.336l.2.314-.2.315c-.14.221-3.443,5.339-8.3,5.339C-6145.722,16367.308-6149.576,16362.226-6149.737,16362.009Zm1.236-.355c1.023,1.218,4.089,4.47,7.605,4.47,3.575,0,6.358-3.477,7.081-4.47a13.687,13.687,0,0,0-3.286-3.2,4.6,4.6,0,0,1,.546,2.178,4.631,4.631,0,0,1-4.625,4.627,4.632,4.632,0,0,1-4.627-4.627,4.594,4.594,0,0,1,.357-1.781A16.6,16.6,0,0,0-6148.5,16361.653Zm3.879-1.026a3.45,3.45,0,0,0,3.443,3.447,3.449,3.449,0,0,0,3.44-3.447,3.446,3.446,0,0,0-3.318-3.441,6.088,6.088,0,0,0-1.058.127A3.449,3.449,0,0,0-6144.622,16360.627Zm.264.224v-.224a3.18,3.18,0,0,1,3.179-3.176h.22v1.181h-.22a2,2,0,0,0-2,2v.224Z" transform="translate(6152.688 -16350.516)" fill="#85828b"/>
    <path id="Union_344" data-name="Union 344" d="M.3,16.007a.7.7,0,0,1-.172-.976L10.444.3a.7.7,0,0,1,1.147.8L1.274,15.836a.7.7,0,0,1-.975.172Z" transform="translate(5.918 3.309)" fill="#85828b" opacity="0"/>
  </g>
</svg>
