<svg xmlns="http://www.w3.org/2000/svg" width="22" height="22" viewBox="0 0 22 22">
  <g id="Group_2764" data-name="Group 2764" transform="translate(-30 -263)">
    <path id="Path_2322" data-name="Path 2322" d="M0,4H22V26H0Z" transform="translate(30 259)" fill="#18171a" opacity="0"/>
    <g id="Group_13811" data-name="Group 13811" transform="translate(26 -706.362)">
      <path id="Path_27464" data-name="Path 27464" d="M14.882,22A9.892,9.892,0,0,0,5,31.882a.659.659,0,0,0,.659.659H7.635a.659.659,0,1,0,0-1.318H6.386A8.573,8.573,0,0,1,8.4,26.33l.528.522a.659.659,0,1,0,.933-.926l-.535-.535a8.448,8.448,0,0,1,4.9-2.045v1.29a.659.659,0,1,0,1.318,0v-1.29a8.448,8.448,0,0,1,4.9,2.045l-.535.535a.659.659,0,1,0,.933.926l.528-.522a8.573,8.573,0,0,1,2.011,4.893H22.128a.659.659,0,1,0,0,1.318H24.1a.659.659,0,0,0,.659-.659A9.892,9.892,0,0,0,14.882,22Zm3.568,5.648a.659.659,0,0,0-.274.062s-1.011.462-2.107,1.009c-.548.273-1.116.565-1.6.837a5.1,5.1,0,0,0-1.139.769,2.2,2.2,0,0,0,3.1,3.109,5.1,5.1,0,0,0,.769-1.139c.272-.483.564-1.058.837-1.606.547-1.1,1.016-2.107,1.016-2.107a.659.659,0,0,0-.6-.933Zm-1.393,2.059c-.094.194-.089.192-.192.4-.267.536-.556,1.087-.81,1.537a8,8,0,0,1-.549.858.881.881,0,0,1-1.249-1.242,7.984,7.984,0,0,1,.858-.549c.45-.254,1.008-.542,1.544-.81C16.866,29.8,16.862,29.8,17.057,29.706Z" transform="translate(0 952.362)" fill="#85828b"/>
    </g>
  </g>
</svg>
