<svg xmlns="http://www.w3.org/2000/svg" width="22" height="22" viewBox="0 0 22 22">
  <g id="Group_2764" data-name="Group 2764" transform="translate(-30 -263)">
    <path id="Path_2322" data-name="Path 2322" d="M0,4H22V26H0Z" transform="translate(30 259)" fill="#18171a" opacity="0"/>
    <path id="Path_27465" data-name="Path 27465" d="M7.28,7.64v3.083c0,4.375,2.572,7.873,7.06,9.6a2.935,2.935,0,0,0,2.113,0c4.485-1.727,7.06-5.224,7.06-9.6V7.64A3.381,3.381,0,0,0,21.357,4.5L16.6,2.676a3.365,3.365,0,0,0-2.413,0L9.434,4.5A3.383,3.383,0,0,0,7.28,7.64Zm1.29,0A2.086,2.086,0,0,1,9.9,5.708l4.755-1.829a2.065,2.065,0,0,1,1.486,0l4.755,1.829A2.084,2.084,0,0,1,22.218,7.64v3.083c0,3.811-2.272,6.872-6.231,8.4a1.636,1.636,0,0,1-1.185,0C10.84,17.6,8.57,14.535,8.57,10.724ZM14.053,14a.643.643,0,0,0,.91,0l0,0,4.113-4.113a.645.645,0,0,0-.912-.912h0l-3.657,3.655-1.883-1.883a.645.645,0,1,0-.927.9l.015.015Z" transform="translate(25.72 262.548)" fill="#85828b"/>
  </g>
</svg>
