<svg xmlns="http://www.w3.org/2000/svg" width="22" height="22" viewBox="0 0 22 22">
  <g id="Group_2764" data-name="Group 2764" transform="translate(-30 -263)">
    <path id="Path_2322" data-name="Path 2322" d="M0,4H22V26H0Z" transform="translate(30 259)" fill="#707070" opacity="0"/>
    <path id="Path_26414" data-name="Path 26414" d="M22153.564,13728.537v-.017l-.488-.2-.006,0a2.431,2.431,0,0,1-3.437,0,2.449,2.449,0,0,1,0-3.432l.006-.006v-.006l-.189-.479h-.023a2.419,2.419,0,1,1,0-4.839h.023l.193-.484-.01-.011a2.422,2.422,0,0,1,1.729-4.139,2.4,2.4,0,0,1,1.709.706l.006.012.467-.2v-.018a2.431,2.431,0,1,1,4.861,0v.018l.479.2.012-.012a2.454,2.454,0,0,1,1.725-.706,2.382,2.382,0,0,1,1.7.706,2.435,2.435,0,0,1,.713,1.725,2.4,2.4,0,0,1-.707,1.708l-.006,0,.217.474h.018a2.428,2.428,0,1,1,0,4.855h-.018l-.2.484.006.006a2.436,2.436,0,0,1,0,3.432,2.461,2.461,0,0,1-1.725.707,2.411,2.411,0,0,1-1.709-.707l-.01,0-.479.2v.017a2.429,2.429,0,0,1-4.857,0Zm-.662-1.479,1.764.729v.751a1.342,1.342,0,0,0,1.324,1.323,1.327,1.327,0,0,0,1.324-1.323v-.746l.09-.038,1.752-.751.072.072.467.473a1.33,1.33,0,0,0,1.869,0,1.337,1.337,0,0,0,0-1.875l-.545-.539.039-.095.729-1.741h.75a1.324,1.324,0,1,0,0-2.647h-.75l-.039-.095-.729-1.741.072-.072.455-.451a1.348,1.348,0,0,0,0-1.869,1.316,1.316,0,0,0-.939-.384,1.293,1.293,0,0,0-.934.384l-.547.54-.094-.033-1.74-.729v-.751a1.332,1.332,0,0,0-1.318-1.318,1.318,1.318,0,0,0-1.324,1.318v.751l-.1.038-1.746.729-.072-.072-.467-.474a1.3,1.3,0,0,0-.936-.384,1.325,1.325,0,0,0-.939,2.253l.545.523-.039.095-.723,1.741h-.752a1.317,1.317,0,0,0-1.318,1.346,1.332,1.332,0,0,0,1.318,1.318h.752l.039.095.723,1.746-.545.54a1.333,1.333,0,0,0-.379.935,1.316,1.316,0,0,0,.379.935,1.323,1.323,0,0,0,1.875,0l.539-.545Zm-.25-5.062a3.315,3.315,0,1,1,3.322,3.31A3.323,3.323,0,0,1,22152.652,13722Zm1.1-.017a2.223,2.223,0,1,0,2.227-2.214A2.228,2.228,0,0,0,22153.748,13721.979Z" transform="translate(-22114.65 -13447.651)" fill="#707070"/>
  </g>
</svg>
