<svg xmlns="http://www.w3.org/2000/svg" width="40" height="40" viewBox="0 0 40 40">
  <g id="Group_13850" data-name="Group 13850" transform="translate(-29.999 -253)">
    <path id="Path_2322" data-name="Path 2322" d="M0-6H40V34H0Z" transform="translate(29.999 259)" fill="#18171a" opacity="0"/>
    <g id="Group_13853" data-name="Group 13853" transform="translate(-7.604 -87.805)">
      <path id="Path_27467" data-name="Path 27467" d="M21429.43,15388.26a.728.728,0,0,1-.377-.629v-3.262a3.791,3.791,0,0,1-3.053-3.7v-5.383a3.782,3.782,0,0,1,3.777-3.779h7.9v-1.73a3.78,3.78,0,0,1,3.773-3.775h9.48a3.793,3.793,0,0,1,3.773,3.775v5.379a3.818,3.818,0,0,1-3.057,3.709v3.256a.736.736,0,0,1-.367.635.757.757,0,0,1-.738-.025l-5.992-3.791h-1.527v1.73a3.788,3.788,0,0,1-3.756,3.775h-3.1l-6.018,3.791a.713.713,0,0,1-.729.025Zm-1.982-12.975v5.365a2.334,2.334,0,0,0,2.33,2.334.722.722,0,0,1,.729.727v2.611l5.059-3.209a.739.739,0,0,1,.389-.111h3.3a2.339,2.339,0,0,0,2.334-2.334v-5.383a2.345,2.345,0,0,0-2.334-2.34h-9.479A2.342,2.342,0,0,0,21427.447,15375.285Zm11.682-5.5v1.73h.127a3.774,3.774,0,0,1,3.771,3.773v2.2h1.732a.724.724,0,0,1,.389.113l5.066,3.217v-2.605a.727.727,0,0,1,.721-.725,2.345,2.345,0,0,0,2.34-2.334l0-5.373a2.356,2.356,0,0,0-2.344-2.332h-9.473A2.332,2.332,0,0,0,21439.129,15369.781Zm-1.643,11.852a.708.708,0,0,1-.6-.422l-.967-1.916h-2.8l-.982,1.916a.685.685,0,0,1-.6.422.721.721,0,0,1-.676-1.072l3.018-5.941a.7.7,0,0,1,.643-.395.728.728,0,0,1,.645.395l3,5.941a.718.718,0,0,1-.014.732.71.71,0,0,1-.621.342A.331.331,0,0,1,21437.486,15381.633Zm-3.646-3.775h1.344l-.664-1.326Z" transform="translate(-21384.396 -15017.195)" fill="#cfbddd"/>
      <path id="Path_27468" data-name="Path 27468" d="M21432.973,15372.372v-5.263h-.982v5.263h-1.1v-2.834c-.049.019-.1.035-.15.051a2.079,2.079,0,0,1-.459.05c0,.049,0,.106,0,.164a1.894,1.894,0,0,1-.111.667,1.725,1.725,0,0,1-.361.553,1.691,1.691,0,0,1-.553.356,1.954,1.954,0,0,1-.707.121,1.983,1.983,0,0,1-.77-.147,2.646,2.646,0,0,1-.6-.379,2.942,2.942,0,0,1-.459-.5,6.158,6.158,0,0,1-.322-.551,4.719,4.719,0,0,1-.221-.526c-.059-.166-.1-.3-.133-.411l-.051-.19.93-.422.074.247c.045.119.084.25.133.39a3.974,3.974,0,0,0,.184.418,2.162,2.162,0,0,0,.229.4,1.513,1.513,0,0,0,.268.323,1.757,1.757,0,0,0,.328.224.989.989,0,0,0,.377.071,1.028,1.028,0,0,0,.34-.056.633.633,0,0,0,.2-.141.51.51,0,0,0,.107-.205,1.088,1.088,0,0,0,.043-.293.538.538,0,0,0-.207-.45,1.143,1.143,0,0,0-.7-.175h-.119a.58.58,0,0,1-.121.009l-.26.037v-1.114l.26.034h.061a1.436,1.436,0,0,0,.42-.059.858.858,0,0,0,.277-.14.516.516,0,0,0,.158-.2.531.531,0,0,0,.057-.229.443.443,0,0,0-.043-.185.241.241,0,0,0-.088-.121.256.256,0,0,0-.143-.084.9.9,0,0,0-.379-.016,1.233,1.233,0,0,0-.176.032,1.088,1.088,0,0,0-.217.076c-.076.022-.164.065-.268.106l-.211.1-.406-.956.2-.09a3.019,3.019,0,0,1,.623-.24,2.4,2.4,0,0,1,.631-.09,1.748,1.748,0,0,1,.6.108,1.583,1.583,0,0,1,.494.295,1.3,1.3,0,0,1,.33.455,1.386,1.386,0,0,1,.117.569,1.413,1.413,0,0,1-.492,1.094c.045.03.088.065.129.1a1.042,1.042,0,0,0,.168.017,1.661,1.661,0,0,0,.406,0,1.1,1.1,0,0,0,.209-.049,1.28,1.28,0,0,0,.211-.1,1.093,1.093,0,0,0,.15-.106v-2.3h4.012v1.028h-.824v5.263Z" transform="translate(-21367.422 -15013.852)" fill="#cfbddd"/>
    </g>
  </g>
</svg>
