<svg xmlns="http://www.w3.org/2000/svg" width="40" height="40" viewBox="0 0 40 40">
  <g id="Group_13851" data-name="Group 13851" transform="translate(-29.999 -253)">
    <path id="Path_2322" data-name="Path 2322" d="M0-6H40V34H0Z" transform="translate(29.999 259)" fill="#18171a" opacity="0"/>
    <g id="noun_Bell_1537774" transform="translate(31.646 259.902)">
      <path id="Union_345" data-name="Union 345" d="M5.638,15.934H.817a.793.793,0,0,1-.689-.384.82.82,0,0,1-.05-.788l.951-1.957A8.746,8.746,0,0,0,1.9,9.082V6.815A6.914,6.914,0,0,1,7.285.013L7.313,0h.936l1.3.026h.962A6.984,6.984,0,0,1,14.41,2.465,6.931,6.931,0,0,1,15.9,6.815V9.082a8.53,8.53,0,0,0,.851,3.7l.973,1.983a.82.82,0,0,1-.05.788.793.793,0,0,1-.689.384H12.165a3.335,3.335,0,0,1-6.528,0Zm3.266,1.1a1.683,1.683,0,0,0,1.577-1.1H7.322A1.683,1.683,0,0,0,8.9,17.031ZM3.527,6.815V9.082A9.992,9.992,0,0,1,2.52,13.506l-.395.788H15.678l-.382-.788a10.134,10.134,0,0,1-1.021-4.424V6.815A5.271,5.271,0,0,0,10.221,1.64H7.582A5.272,5.272,0,0,0,3.527,6.815Z" transform="translate(9.354 4.098)" fill="#cfbddd"/>
    </g>
    <g id="Group_13852" data-name="Group 13852" transform="translate(-978 241)">
      <g id="Ellipse_86" data-name="Ellipse 86" transform="translate(1029 17)" fill="#db7611" stroke="#483764" stroke-width="2">
        <circle cx="6" cy="6" r="6" stroke="none"/>
        <circle cx="6" cy="6" r="5" fill="none"/>
      </g>
    </g>
  </g>
</svg>
