<svg xmlns="http://www.w3.org/2000/svg" width="22" height="22" viewBox="0 0 22 22">
  <g id="Group_13920" data-name="Group 13920" transform="translate(-30 -263)">
    <path id="Path_2322" data-name="Path 2322" d="M0,4H22V26H0Z" transform="translate(30 259)" fill="#5d574b" opacity="0"/>
    <path id="Path_27551" data-name="Path 27551" d="M-1148.087,14092.644a1.5,1.5,0,0,1-1.323-.771,1.5,1.5,0,0,1,.021-1.528l2.957-4.919a1.512,1.512,0,0,1,1.305-.739,1.5,1.5,0,0,1,1.305.739l3.095,5.146h-.025a1.494,1.494,0,0,1-.092,1.3,1.507,1.507,0,0,1-1.326.771Zm2.695-6.6-2.957,4.92a.3.3,0,0,0,0,.311.293.293,0,0,0,.265.152h5.917a.291.291,0,0,0,.269-.155l.007-.011a.3.3,0,0,0-.011-.3l-2.96-4.92a.293.293,0,0,0-.262-.148A.3.3,0,0,0-1145.392,14086.048Zm-6.4,5.62-.152-.612a7.321,7.321,0,0,1-2.076-.855l-.541.321a1.291,1.291,0,0,1-.665.185,1.269,1.269,0,0,1-.912-.379l-.538-.534a1.285,1.285,0,0,1-.194-1.577l.322-.537a7.3,7.3,0,0,1-.856-2.073l-.612-.151a1.294,1.294,0,0,1-.98-1.252v-.758a1.284,1.284,0,0,1,.976-1.252l.612-.151a7.363,7.363,0,0,1,.859-2.073l-.322-.537a1.284,1.284,0,0,1,.194-1.577l.534-.538a1.286,1.286,0,0,1,.916-.378,1.3,1.3,0,0,1,.665.184l.541.322a7.482,7.482,0,0,1,2.076-.856l.152-.608a1.294,1.294,0,0,1,1.255-.979h.757a1.288,1.288,0,0,1,1.256.979l.152.608a7.5,7.5,0,0,1,2.08.856l.538-.322a1.3,1.3,0,0,1,.665-.184,1.286,1.286,0,0,1,.916.378l.538.538a1.283,1.283,0,0,1,.195,1.573l-.325.538a7.417,7.417,0,0,1,.859,2.076l.612.151a1.287,1.287,0,0,1,.98,1.252v.758a1.294,1.294,0,0,1-.98,1.252l-.4.095a.521.521,0,0,1-.149.021.6.6,0,0,1-.587-.46.613.613,0,0,1,.067-.46.607.607,0,0,1,.375-.275l.4-.1a.076.076,0,0,0,.06-.074v-.758a.074.074,0,0,0-.06-.074l-.98-.243a.615.615,0,0,1-.449-.478,6.127,6.127,0,0,0-.966-2.331.6.6,0,0,1-.018-.654l.516-.859a.08.08,0,0,0-.011-.1l-.538-.534a.076.076,0,0,0-.1-.014l-.863.516a.6.6,0,0,1-.311.089.592.592,0,0,1-.343-.106,6.19,6.19,0,0,0-2.334-.962.614.614,0,0,1-.477-.449l-.244-.976a.077.077,0,0,0-.078-.061h-.757a.083.083,0,0,0-.078.061l-.244.976a.607.607,0,0,1-.478.446,6.194,6.194,0,0,0-2.334.965.623.623,0,0,1-.343.106.609.609,0,0,1-.311-.089l-.863-.516a.079.079,0,0,0-.1.011l-.534.537a.076.076,0,0,0-.014.1l.52.859a.609.609,0,0,1-.021.654,6.241,6.241,0,0,0-.965,2.331.6.6,0,0,1-.449.474l-.976.244a.082.082,0,0,0-.06.077v.758a.079.079,0,0,0,.06.074l.976.243a.6.6,0,0,1,.449.475,6.21,6.21,0,0,0,.965,2.33.609.609,0,0,1,.021.654l-.52.86a.079.079,0,0,0,.014.095l.534.538a.081.081,0,0,0,.1.011l.863-.517a.608.608,0,0,1,.315-.085.607.607,0,0,1,.34.1,6.188,6.188,0,0,0,2.338.966.6.6,0,0,1,.474.449l.244.973a.079.079,0,0,0,.078.06.616.616,0,0,1,.432.177.619.619,0,0,1,.177.432.607.607,0,0,1-.608.6A1.29,1.29,0,0,1-1151.794,14091.668Z" transform="translate(1190.998 -13810)" fill="#85828b"/>
    <path id="Path_27555" data-name="Path 27555" d="M72.864,13953.275l-1.622-1.334a.584.584,0,0,1-.238-.55.574.574,0,0,1,.385-.463.5.5,0,0,1,.184-.032.567.567,0,0,1,.4.16l1.213,1c.4-.4.8-.826,1.2-1.238.529-.554,1.075-1.123,1.595-1.643a.581.581,0,0,1,.4-.174h.02a.57.57,0,0,1,.526.349.576.576,0,0,1-.127.64c-.5.5-1.039,1.063-1.561,1.608s-1.075,1.122-1.595,1.642a.57.57,0,0,1-.405.168A.578.578,0,0,1,72.864,13953.275Z" transform="translate(-32.664 -13678.406)" fill="#85828b"/>
  </g>
</svg>
