<svg xmlns="http://www.w3.org/2000/svg" width="34.631" height="29.303" viewBox="0 0 34.631 29.303">
  <g id="Group_13937" data-name="Group 13937" transform="translate(-772 -180.375)">
    <g id="Group_9953" data-name="Group 9953" transform="translate(669 -96.625)">
      <path id="Path_25640" data-name="Path 25640" d="M133.635,306.3a4,4,0,0,0,3.46-6l-.024-.037-13.181-21.05a3.989,3.989,0,0,0-7.15,0l-13.181,21.05-.024.037a4,4,0,0,0,3.46,6Zm0-2.664H107a1.333,1.333,0,0,1-1.332-1.332,1.306,1.306,0,0,1,.157-.626c.013-.024,13.178-21.048,13.178-21.048a1.378,1.378,0,0,1,2.632,0L134.8,301.657a1.306,1.306,0,0,1,.17.65A1.332,1.332,0,0,1,133.635,303.639Zm-11.988-4v-1.332a1.332,1.332,0,0,0-2.664,0v1.332a1.332,1.332,0,1,0,2.664,0Zm0-5.328v-7.992a1.332,1.332,0,1,0-2.664,0v7.992a1.332,1.332,0,1,0,2.664,0Z" fill="#f2a1a0" fill-rule="evenodd"/>
    </g>
  </g>
</svg>
