<svg xmlns="http://www.w3.org/2000/svg" width="22" height="22" viewBox="0 0 22 22">
  <g id="Group_2764" data-name="Group 2764" transform="translate(-30 -263)">
    <path id="Path_2322" data-name="Path 2322" d="M0,4H22V26H0Z" transform="translate(30 259)" fill="#18171a" opacity="0"/>
    <path id="Path_27462" data-name="Path 27462" d="M21428.855,15385.775a1.812,1.812,0,0,1,0-3.623h.281v-3.682a.649.649,0,0,1-.613-.645v-1.217h-.137a.642.642,0,0,1-.645-.645v-1.689a1.733,1.733,0,0,1-.391-.062,1.827,1.827,0,0,1-1.289-2.235,1.844,1.844,0,0,1,.854-1.107l8.016-4.628a1.864,1.864,0,0,1,.912-.244h.014a1.865,1.865,0,0,1,.922.26l.014.011,7.977,4.6a1.824,1.824,0,0,1-.436,3.343,1.766,1.766,0,0,1-.4.063v1.689a.645.645,0,0,1-.645.645h-.135v1.217a.65.65,0,0,1-.619.645v3.682h.281a1.812,1.812,0,1,1,0,3.623Zm-.359-2.178a.518.518,0,0,0,.365.884h13.965a.5.5,0,0,0,.363-.151.519.519,0,0,0,.154-.364.5.5,0,0,0-.154-.363.511.511,0,0,0-.363-.156h-13.965A.532.532,0,0,0,21428.5,15383.6Zm11.438-1.445h1.316v-3.682h-1.316Zm-6.27-4.326a.649.649,0,0,1-.613.645v3.682h5.588v-3.682a.65.65,0,0,1-.619-.645v-1.217h-4.355Zm-3.229,4.326h1.32v-3.682h-1.32Zm8.885-4.977h2.543v-.566h-2.543Zm-9.5,0h2.549v-.566h-2.549Zm-.779-3.316v1.455h13.607v-1.455l-6.8-3.931Zm6.535-6.5-8.016,4.628a.546.546,0,0,0-.246.322.53.53,0,0,0,.053.405.5.5,0,0,0,.318.244.521.521,0,0,0,.367-.025.309.309,0,0,1,.068-.036l7.395-4.273a.651.651,0,0,1,.648,0l7.42,4.283a.118.118,0,0,1,.047.026.577.577,0,0,0,.229.047.627.627,0,0,0,.141-.016.526.526,0,0,0,.369-.655.5.5,0,0,0-.244-.317l-8.006-4.627a.559.559,0,0,0-.271-.072h0A.544.544,0,0,0,21435.576,15367.359Z" transform="translate(-21394.998 -15101.998)" fill="#fff"/>
  </g>
</svg>
